<svg xmlns="http://www.w3.org/2000/svg" viewBox="0 0 64 64">
  <rect x="2" y="2" width="60" height="60" rx="10" fill="#f2f4f1"/>
  <rect x="6" y="6" width="52" height="52" rx="7" fill="none" stroke="#182420" stroke-width="3"/>
  <g fill="none" stroke="#182420" stroke-width="4" stroke-linecap="round" transform="rotate(-4 32 32)">
    <path d="M20 16h24M20 48h24"/>
    <path d="M23 16c0 10 7 11 9 15 2-4 9-5 9-15M23 48c0-10 7-11 9-15 2 4 9 5 9 15"/>
  </g>
  <path d="M26.5 44.5c1.5-5 4-6.5 5.5-8 1.5 1.5 4 3 5.5 8z" fill="#b13524" transform="rotate(-4 32 32)"/>
</svg>
